<?xml version="1.0" encoding="utf-8"?>
<!-- Generator: Adobe Illustrator 15.1.0, SVG Export Plug-In  -->
<!DOCTYPE svg PUBLIC "-//W3C//DTD SVG 1.1//EN" "http://www.w3.org/Graphics/SVG/1.1/DTD/svg11.dtd" [
	<!ENTITY ns_flows "http://ns.adobe.com/Flows/1.0/">
]>
<svg version="1.1"
	 xmlns="http://www.w3.org/2000/svg" xmlns:xlink="http://www.w3.org/1999/xlink" xmlns:a="http://ns.adobe.com/AdobeSVGViewerExtensions/3.0/"
	 x="0px" y="0px" width="223px" height="72px" viewBox="0 0 223 72" overflow="visible" enable-background="new 0 0 223 72"
	 xml:space="preserve">
<defs>
</defs>
<g>
	<defs>
		<rect id="SVGID_51_" width="223.2" height="72"/>
	</defs>
	<clipPath id="SVGID_52_">
		<use xlink:href="#SVGID_51_"  overflow="visible"/>
	</clipPath>
	<path clip-path="url(#SVGID_52_)" fill="#706F6F" d="M5.657,68.395c0,0.424-0.067,0.812-0.203,1.16
		c-0.136,0.351-0.327,0.648-0.573,0.896c-0.246,0.25-0.541,0.441-0.887,0.576c-0.345,0.137-0.727,0.203-1.145,0.203H0.723v-5.668
		h2.126c0.418,0,0.8,0.067,1.145,0.207c0.346,0.135,0.641,0.328,0.887,0.575c0.246,0.246,0.437,0.546,0.573,0.896
		C5.59,67.588,5.657,67.973,5.657,68.395 M4.824,68.395c0-0.34-0.047-0.646-0.139-0.914c-0.091-0.27-0.224-0.498-0.396-0.684
		c-0.173-0.186-0.381-0.326-0.624-0.426c-0.244-0.1-0.516-0.148-0.816-0.148H1.542v4.351h1.307c0.3,0,0.572-0.052,0.816-0.148
		c0.243-0.1,0.451-0.241,0.624-0.426c0.172-0.188,0.305-0.417,0.396-0.687C4.777,69.043,4.824,68.738,4.824,68.395"/>
</g>
<g>
	<defs>
		<rect id="SVGID_50_" width="223.2" height="72"/>
	</defs>
	<clipPath id="SVGID_53_">
		<use xlink:href="#SVGID_50_"  overflow="visible"/>
	</clipPath>
	<rect x="6.731" y="65.562" clip-path="url(#SVGID_53_)" fill="#706F6F" width="0.818" height="5.668"/>
</g>
<g>
	<defs>
		<rect id="SVGID_49_" width="223.2" height="72"/>
	</defs>
	<clipPath id="SVGID_54_">
		<use xlink:href="#SVGID_49_"  overflow="visible"/>
	</clipPath>
	<path clip-path="url(#SVGID_54_)" fill="#706F6F" d="M11.886,66.477c-0.024,0.041-0.05,0.072-0.077,0.092
		c-0.027,0.021-0.065,0.029-0.109,0.029c-0.047,0-0.101-0.021-0.162-0.063c-0.06-0.043-0.136-0.093-0.227-0.146
		c-0.091-0.056-0.199-0.104-0.326-0.146c-0.126-0.043-0.278-0.064-0.454-0.064c-0.168,0-0.317,0.021-0.445,0.064
		s-0.234,0.104-0.319,0.18c-0.086,0.077-0.151,0.166-0.194,0.271c-0.043,0.104-0.065,0.215-0.065,0.338
		c0,0.154,0.039,0.281,0.116,0.384c0.078,0.099,0.18,0.185,0.306,0.257c0.127,0.072,0.271,0.135,0.433,0.188
		c0.162,0.054,0.327,0.107,0.496,0.166c0.169,0.06,0.334,0.123,0.496,0.195c0.161,0.072,0.305,0.166,0.432,0.278
		c0.126,0.11,0.228,0.247,0.306,0.409c0.077,0.162,0.117,0.359,0.117,0.596c0,0.25-0.044,0.482-0.129,0.701
		c-0.086,0.217-0.21,0.406-0.373,0.568c-0.164,0.162-0.364,0.289-0.6,0.383c-0.238,0.094-0.507,0.139-0.81,0.139
		c-0.182,0-0.357-0.016-0.527-0.053c-0.17-0.034-0.331-0.084-0.483-0.15c-0.151-0.064-0.293-0.141-0.425-0.232
		c-0.134-0.09-0.253-0.19-0.358-0.305l0.236-0.388c0.022-0.032,0.048-0.058,0.082-0.077c0.032-0.02,0.069-0.029,0.109-0.029
		c0.055,0,0.118,0.029,0.19,0.086c0.074,0.06,0.162,0.123,0.27,0.191c0.106,0.07,0.234,0.135,0.385,0.191
		c0.15,0.059,0.331,0.088,0.545,0.088c0.176,0,0.334-0.023,0.474-0.07c0.139-0.048,0.257-0.115,0.354-0.201
		c0.095-0.088,0.168-0.193,0.218-0.318c0.05-0.123,0.076-0.26,0.076-0.409c0-0.168-0.039-0.308-0.117-0.412
		c-0.078-0.106-0.179-0.195-0.306-0.267c-0.126-0.071-0.27-0.133-0.431-0.184c-0.16-0.048-0.325-0.102-0.495-0.156
		c-0.17-0.053-0.336-0.115-0.496-0.188c-0.161-0.07-0.305-0.163-0.431-0.277c-0.126-0.115-0.228-0.258-0.305-0.43
		c-0.079-0.17-0.118-0.383-0.118-0.635c0-0.199,0.04-0.396,0.12-0.584c0.078-0.191,0.193-0.357,0.343-0.502
		c0.15-0.146,0.335-0.262,0.555-0.351c0.22-0.09,0.472-0.133,0.756-0.133c0.318,0,0.61,0.049,0.875,0.149
		c0.264,0.101,0.496,0.244,0.693,0.435L11.886,66.477z"/>
</g>
<g>
	<defs>
		<rect id="SVGID_48_" width="223.2" height="72"/>
	</defs>
	<clipPath id="SVGID_55_">
		<use xlink:href="#SVGID_48_"  overflow="visible"/>
	</clipPath>
	<polygon clip-path="url(#SVGID_55_)" fill="#706F6F" points="17.116,65.562 17.116,66.246 15.303,66.246 15.303,71.23 
		14.489,71.23 14.489,66.246 12.672,66.246 12.672,65.562 	"/>
</g>
<g>
	<defs>
		<rect id="SVGID_47_" width="223.2" height="72"/>
	</defs>
	<clipPath id="SVGID_56_">
		<use xlink:href="#SVGID_47_"  overflow="visible"/>
	</clipPath>
	<path clip-path="url(#SVGID_56_)" fill="#706F6F" d="M18.75,68.893v2.338h-0.813v-5.668h1.623c0.364,0,0.676,0.037,0.94,0.111
		s0.481,0.18,0.654,0.318c0.172,0.139,0.299,0.305,0.381,0.498c0.081,0.195,0.122,0.412,0.122,0.652c0,0.2-0.031,0.389-0.093,0.561
		c-0.061,0.176-0.151,0.33-0.268,0.469c-0.117,0.139-0.261,0.258-0.431,0.357c-0.17,0.102-0.362,0.176-0.578,0.225
		c0.103,0.061,0.191,0.146,0.265,0.258l1.615,2.219H21.44c-0.147,0-0.255-0.057-0.324-0.174l-1.422-1.986
		c-0.045-0.062-0.093-0.108-0.146-0.135c-0.052-0.028-0.132-0.043-0.237-0.043H18.75z M18.75,68.297h0.782
		c0.219,0,0.411-0.027,0.577-0.08s0.304-0.127,0.414-0.225c0.112-0.098,0.195-0.213,0.251-0.346
		c0.057-0.133,0.085-0.281,0.085-0.445c0-0.328-0.107-0.576-0.323-0.746c-0.217-0.168-0.542-0.252-0.976-0.252h-0.81V68.297z"/>
</g>
<g>
	<defs>
		<rect id="SVGID_46_" width="223.2" height="72"/>
	</defs>
	<clipPath id="SVGID_57_">
		<use xlink:href="#SVGID_46_"  overflow="visible"/>
	</clipPath>
	<rect x="22.91" y="65.562" clip-path="url(#SVGID_57_)" fill="#706F6F" width="0.818" height="5.668"/>
</g>
<g>
	<defs>
		<rect id="SVGID_45_" width="223.2" height="72"/>
	</defs>
	<clipPath id="SVGID_58_">
		<use xlink:href="#SVGID_45_"  overflow="visible"/>
	</clipPath>
	<path clip-path="url(#SVGID_58_)" fill="#706F6F" d="M29.112,70.029c0.045,0,0.084,0.018,0.118,0.053l0.324,0.355
		c-0.232,0.271-0.514,0.481-0.847,0.631s-0.733,0.225-1.199,0.225c-0.411,0-0.783-0.07-1.116-0.213s-0.618-0.34-0.853-0.596
		c-0.236-0.256-0.417-0.562-0.545-0.916c-0.128-0.355-0.192-0.746-0.192-1.174c0-0.427,0.068-0.816,0.202-1.172
		c0.134-0.357,0.324-0.662,0.569-0.916c0.244-0.255,0.538-0.451,0.879-0.595c0.341-0.144,0.717-0.213,1.127-0.213
		c0.403,0,0.761,0.065,1.073,0.196c0.312,0.134,0.584,0.308,0.815,0.525L29.199,66.6c-0.019,0.027-0.04,0.049-0.066,0.066
		c-0.025,0.016-0.06,0.025-0.104,0.025c-0.05,0-0.109-0.025-0.176-0.076c-0.067-0.049-0.156-0.105-0.264-0.168
		c-0.11-0.062-0.247-0.117-0.41-0.168c-0.163-0.049-0.364-0.074-0.604-0.074c-0.284,0-0.546,0.049-0.783,0.15
		c-0.24,0.1-0.444,0.242-0.616,0.43c-0.17,0.188-0.303,0.416-0.398,0.688c-0.095,0.271-0.142,0.578-0.142,0.92
		c0,0.349,0.049,0.658,0.148,0.931c0.099,0.272,0.234,0.504,0.407,0.688c0.172,0.188,0.376,0.332,0.61,0.43
		c0.234,0.101,0.486,0.147,0.754,0.147c0.166,0,0.316-0.009,0.447-0.028s0.254-0.051,0.365-0.09
		c0.112-0.039,0.217-0.092,0.314-0.154c0.098-0.062,0.196-0.139,0.292-0.225c0.022-0.02,0.043-0.033,0.066-0.045
		C29.061,70.035,29.086,70.029,29.112,70.029"/>
</g>
<g>
	<defs>
		<rect id="SVGID_44_" width="223.2" height="72"/>
	</defs>
	<clipPath id="SVGID_59_">
		<use xlink:href="#SVGID_44_"  overflow="visible"/>
	</clipPath>
	<polygon clip-path="url(#SVGID_59_)" fill="#706F6F" points="34.27,65.562 34.27,66.246 32.458,66.246 32.458,71.23 31.644,71.23 
		31.644,66.246 29.827,66.246 29.827,65.562 	"/>
</g>
<g>
	<defs>
		<rect id="SVGID_43_" width="223.2" height="72"/>
	</defs>
	<clipPath id="SVGID_60_">
		<use xlink:href="#SVGID_43_"  overflow="visible"/>
	</clipPath>
	<path clip-path="url(#SVGID_60_)" fill="#706F6F" d="M42.13,68.395c0,0.424-0.067,0.814-0.203,1.17
		c-0.136,0.355-0.326,0.66-0.571,0.916c-0.246,0.256-0.54,0.455-0.885,0.597c-0.345,0.143-0.727,0.213-1.146,0.213
		s-0.8-0.07-1.143-0.213c-0.344-0.142-0.639-0.341-0.887-0.597c-0.247-0.256-0.438-0.561-0.574-0.916
		c-0.136-0.354-0.204-0.746-0.204-1.17c0-0.422,0.068-0.809,0.204-1.164c0.136-0.355,0.327-0.66,0.574-0.918
		c0.248-0.254,0.543-0.455,0.887-0.598c0.343-0.143,0.724-0.216,1.143-0.216c0.419,0,0.801,0.073,1.146,0.216
		c0.345,0.143,0.639,0.344,0.885,0.598c0.245,0.258,0.435,0.562,0.571,0.918C42.063,67.586,42.13,67.973,42.13,68.395
		 M41.296,68.395c0-0.34-0.045-0.646-0.138-0.916c-0.092-0.271-0.224-0.5-0.397-0.688c-0.172-0.188-0.38-0.332-0.622-0.433
		c-0.242-0.102-0.513-0.15-0.814-0.15c-0.3,0-0.572,0.05-0.815,0.15c-0.243,0.101-0.451,0.244-0.624,0.433
		c-0.173,0.188-0.306,0.418-0.4,0.688c-0.092,0.271-0.139,0.576-0.139,0.916c0,0.345,0.047,0.65,0.139,0.92
		c0.094,0.273,0.227,0.502,0.4,0.688c0.173,0.188,0.381,0.329,0.624,0.433c0.243,0.1,0.515,0.149,0.815,0.149
		c0.301,0,0.572-0.051,0.814-0.149c0.242-0.104,0.45-0.244,0.622-0.433c0.173-0.187,0.305-0.414,0.397-0.688
		C41.251,69.045,41.296,68.738,41.296,68.395"/>
</g>
<g>
	<defs>
		<rect id="SVGID_42_" width="223.2" height="72"/>
	</defs>
	<clipPath id="SVGID_61_">
		<use xlink:href="#SVGID_42_"  overflow="visible"/>
	</clipPath>
	<polygon clip-path="url(#SVGID_61_)" fill="#706F6F" points="46.705,65.562 46.705,66.227 44.016,66.227 44.016,68.154 
		46.31,68.154 46.31,68.818 44.016,68.818 44.016,71.23 43.197,71.23 43.197,65.562 	"/>
</g>
<g>
	<defs>
		<rect id="SVGID_41_" width="223.2" height="72"/>
	</defs>
	<clipPath id="SVGID_62_">
		<use xlink:href="#SVGID_41_"  overflow="visible"/>
	</clipPath>
	<path clip-path="url(#SVGID_62_)" fill="#706F6F" d="M53.458,70.029c0.045,0,0.084,0.018,0.119,0.053l0.324,0.355
		c-0.232,0.271-0.514,0.481-0.847,0.631s-0.733,0.225-1.2,0.225c-0.41,0-0.782-0.07-1.115-0.213s-0.618-0.34-0.853-0.596
		c-0.236-0.256-0.418-0.562-0.545-0.916c-0.128-0.355-0.192-0.746-0.192-1.174c0-0.427,0.067-0.816,0.202-1.172
		c0.133-0.357,0.324-0.662,0.568-0.916c0.245-0.255,0.538-0.451,0.879-0.595c0.341-0.144,0.717-0.213,1.128-0.213
		c0.402,0,0.76,0.065,1.072,0.196c0.313,0.134,0.584,0.308,0.815,0.525L53.546,66.6c-0.019,0.027-0.041,0.049-0.066,0.066
		c-0.025,0.016-0.06,0.025-0.104,0.025c-0.051,0-0.109-0.025-0.176-0.076c-0.067-0.049-0.156-0.105-0.265-0.168
		c-0.109-0.062-0.246-0.117-0.409-0.168c-0.163-0.049-0.364-0.074-0.604-0.074c-0.284,0-0.546,0.049-0.784,0.15
		c-0.239,0.1-0.444,0.242-0.615,0.43c-0.17,0.188-0.303,0.416-0.398,0.688c-0.095,0.272-0.143,0.578-0.143,0.92
		c0,0.349,0.05,0.658,0.149,0.931c0.098,0.272,0.234,0.504,0.406,0.688c0.173,0.188,0.376,0.332,0.61,0.43
		c0.235,0.101,0.487,0.147,0.755,0.147c0.166,0,0.315-0.009,0.447-0.028c0.131-0.02,0.253-0.051,0.365-0.09
		c0.112-0.039,0.217-0.092,0.314-0.154c0.097-0.062,0.195-0.139,0.292-0.225c0.021-0.02,0.042-0.033,0.065-0.045
		C53.408,70.035,53.433,70.029,53.458,70.029"/>
</g>
<g>
	<defs>
		<rect id="SVGID_40_" width="223.2" height="72"/>
	</defs>
	<clipPath id="SVGID_63_">
		<use xlink:href="#SVGID_40_"  overflow="visible"/>
	</clipPath>
	<path clip-path="url(#SVGID_63_)" fill="#706F6F" d="M59.925,68.395c0,0.424-0.068,0.814-0.204,1.17
		c-0.135,0.355-0.325,0.66-0.57,0.916c-0.246,0.256-0.54,0.455-0.885,0.597c-0.345,0.143-0.727,0.213-1.146,0.213
		s-0.8-0.07-1.143-0.213c-0.344-0.142-0.639-0.341-0.887-0.597s-0.439-0.561-0.575-0.916c-0.135-0.354-0.203-0.746-0.203-1.17
		c0-0.422,0.068-0.809,0.203-1.164c0.136-0.355,0.327-0.66,0.575-0.918c0.248-0.254,0.543-0.455,0.887-0.598
		c0.343-0.143,0.724-0.216,1.143-0.216s0.801,0.073,1.146,0.216c0.345,0.143,0.639,0.344,0.885,0.598
		c0.245,0.258,0.435,0.562,0.57,0.918C59.857,67.586,59.925,67.973,59.925,68.395 M59.091,68.395c0-0.34-0.046-0.646-0.138-0.916
		c-0.092-0.271-0.224-0.5-0.397-0.688c-0.172-0.188-0.38-0.332-0.622-0.433c-0.242-0.102-0.513-0.15-0.814-0.15
		c-0.3,0-0.572,0.05-0.815,0.15c-0.243,0.101-0.452,0.244-0.625,0.433c-0.172,0.188-0.305,0.418-0.399,0.688
		c-0.092,0.271-0.139,0.576-0.139,0.916c0,0.345,0.047,0.65,0.139,0.92c0.094,0.273,0.227,0.502,0.399,0.688
		c0.173,0.188,0.382,0.329,0.625,0.433c0.243,0.1,0.515,0.149,0.815,0.149c0.301,0,0.572-0.051,0.814-0.149
		c0.242-0.104,0.45-0.244,0.622-0.433c0.173-0.187,0.305-0.414,0.397-0.688C59.045,69.045,59.091,68.738,59.091,68.395"/>
</g>
<g>
	<defs>
		<rect id="SVGID_39_" width="223.2" height="72"/>
	</defs>
	<clipPath id="SVGID_64_">
		<use xlink:href="#SVGID_39_"  overflow="visible"/>
	</clipPath>
	<polygon clip-path="url(#SVGID_64_)" fill="#706F6F" points="61.805,70.545 64.227,70.545 64.227,71.23 60.992,71.23 
		60.992,65.562 61.805,65.562 	"/>
</g>
<g>
	<defs>
		<rect id="SVGID_38_" width="223.2" height="72"/>
	</defs>
	<clipPath id="SVGID_65_">
		<use xlink:href="#SVGID_38_"  overflow="visible"/>
	</clipPath>
	<path clip-path="url(#SVGID_65_)" fill="#706F6F" d="M67.062,70.58c0.229,0,0.434-0.039,0.614-0.117
		c0.181-0.078,0.334-0.186,0.459-0.326c0.125-0.139,0.22-0.307,0.286-0.498c0.066-0.195,0.099-0.41,0.099-0.643v-3.434h0.813v3.434
		c0,0.328-0.052,0.633-0.158,0.916c-0.104,0.281-0.255,0.525-0.45,0.73c-0.195,0.205-0.433,0.366-0.715,0.481
		c-0.282,0.115-0.597,0.174-0.948,0.174c-0.353,0-0.669-0.059-0.95-0.174c-0.28-0.115-0.518-0.276-0.714-0.481
		c-0.196-0.205-0.348-0.449-0.453-0.73c-0.105-0.283-0.157-0.588-0.157-0.916v-3.434h0.813v3.434c0,0.23,0.032,0.443,0.099,0.637
		c0.065,0.193,0.161,0.361,0.286,0.502s0.278,0.25,0.46,0.328C66.628,70.541,66.833,70.58,67.062,70.58"/>
</g>
<g>
	<defs>
		<rect id="SVGID_37_" width="223.2" height="72"/>
	</defs>
	<clipPath id="SVGID_66_">
		<use xlink:href="#SVGID_37_"  overflow="visible"/>
	</clipPath>
	<path clip-path="url(#SVGID_66_)" fill="#706F6F" d="M73.667,69.557c0.028-0.076,0.059-0.149,0.088-0.223
		c0.03-0.072,0.064-0.143,0.101-0.214l1.88-3.419c0.035-0.066,0.073-0.105,0.113-0.119c0.041-0.012,0.096-0.02,0.168-0.02h0.604
		v5.668h-0.715v-4.076c0-0.057,0.001-0.119,0.004-0.187s0.007-0.133,0.012-0.2l-1.903,3.483c-0.03,0.062-0.07,0.104-0.122,0.14
		c-0.05,0.03-0.108,0.047-0.171,0.047h-0.115c-0.134,0-0.233-0.062-0.296-0.187l-1.944-3.5c0.006,0.072,0.011,0.142,0.017,0.209
		c0.005,0.067,0.008,0.133,0.008,0.192v4.076h-0.715v-5.668h0.604c0.07,0,0.127,0.008,0.168,0.021
		c0.04,0.015,0.078,0.053,0.112,0.119l1.915,3.428C73.547,69.262,73.608,69.404,73.667,69.557"/>
</g>
<g>
	<defs>
		<rect id="SVGID_36_" width="223.2" height="72"/>
	</defs>
	<clipPath id="SVGID_67_">
		<use xlink:href="#SVGID_36_"  overflow="visible"/>
	</clipPath>
	<path clip-path="url(#SVGID_67_)" fill="#706F6F" d="M78.036,71.23v-5.668h1.833c0.352,0,0.655,0.035,0.908,0.104
		s0.461,0.166,0.624,0.293c0.163,0.129,0.283,0.285,0.361,0.469c0.078,0.184,0.116,0.393,0.116,0.621
		c0,0.137-0.021,0.268-0.064,0.396c-0.044,0.129-0.11,0.246-0.195,0.354c-0.088,0.109-0.197,0.207-0.329,0.298
		c-0.131,0.088-0.286,0.157-0.462,0.215c0.409,0.082,0.717,0.229,0.926,0.446c0.21,0.218,0.315,0.5,0.315,0.849
		c0,0.242-0.045,0.463-0.135,0.662c-0.09,0.198-0.22,0.369-0.391,0.512c-0.172,0.143-0.381,0.252-0.63,0.332
		c-0.249,0.078-0.533,0.117-0.851,0.117H78.036z M78.849,68.088h0.983c0.211,0,0.394-0.023,0.55-0.068
		c0.155-0.041,0.283-0.106,0.385-0.188s0.177-0.181,0.227-0.295c0.05-0.117,0.075-0.246,0.075-0.39c0-0.326-0.098-0.563-0.294-0.717
		c-0.197-0.15-0.499-0.227-0.906-0.227h-1.02V68.088z M78.849,68.664v1.92h1.201c0.216,0,0.4-0.023,0.553-0.076
		c0.152-0.049,0.277-0.117,0.375-0.207c0.098-0.088,0.169-0.193,0.216-0.312c0.046-0.123,0.069-0.257,0.069-0.4
		c0-0.284-0.101-0.51-0.301-0.676c-0.2-0.166-0.504-0.248-0.912-0.248L78.849,68.664L78.849,68.664z"/>
</g>
<g>
	<defs>
		<rect id="SVGID_35_" width="223.2" height="72"/>
	</defs>
	<clipPath id="SVGID_68_">
		<use xlink:href="#SVGID_35_"  overflow="visible"/>
	</clipPath>
	<rect x="83.159" y="65.562" clip-path="url(#SVGID_68_)" fill="#706F6F" width="0.818" height="5.668"/>
</g>
<g>
	<defs>
		<rect id="SVGID_34_" width="223.2" height="72"/>
	</defs>
	<clipPath id="SVGID_69_">
		<use xlink:href="#SVGID_34_"  overflow="visible"/>
	</clipPath>
	<path clip-path="url(#SVGID_69_)" fill="#706F6F" d="M90.047,71.23h-0.632c-0.071,0-0.129-0.019-0.174-0.054
		c-0.045-0.034-0.079-0.082-0.102-0.141l-0.51-1.33h-2.516l-0.51,1.33c-0.015,0.051-0.048,0.096-0.097,0.135
		c-0.049,0.039-0.107,0.06-0.176,0.06h-0.632l2.26-5.668h0.825L90.047,71.23z M86.338,69.121h2.065l-0.856-2.23
		c-0.029-0.07-0.06-0.154-0.089-0.248c-0.03-0.094-0.06-0.194-0.09-0.305c-0.028,0.109-0.057,0.213-0.086,0.307
		c-0.029,0.097-0.058,0.181-0.087,0.25L86.338,69.121z"/>
</g>
<g>
	<defs>
		<rect id="SVGID_33_" width="223.2" height="72"/>
	</defs>
	<clipPath id="SVGID_70_">
		<use xlink:href="#SVGID_33_"  overflow="visible"/>
	</clipPath>
	<path clip-path="url(#SVGID_70_)" fill="#706F6F" d="M92.509,71.23v-5.668h1.833c0.352,0,0.655,0.035,0.908,0.104
		s0.461,0.166,0.624,0.293c0.163,0.129,0.284,0.285,0.361,0.469c0.078,0.184,0.117,0.393,0.117,0.621
		c0,0.137-0.021,0.268-0.065,0.396c-0.044,0.128-0.109,0.246-0.195,0.354c-0.087,0.109-0.197,0.207-0.329,0.298
		c-0.131,0.088-0.286,0.157-0.462,0.215c0.409,0.082,0.717,0.229,0.926,0.446c0.21,0.218,0.315,0.5,0.315,0.849
		c0,0.242-0.045,0.463-0.135,0.662c-0.09,0.198-0.22,0.369-0.391,0.512c-0.172,0.143-0.381,0.252-0.63,0.332
		c-0.249,0.078-0.533,0.117-0.851,0.117H92.509z M93.322,68.088h0.983c0.211,0,0.395-0.023,0.55-0.068
		c0.155-0.041,0.283-0.106,0.385-0.188c0.102-0.082,0.177-0.181,0.227-0.295c0.05-0.117,0.075-0.246,0.075-0.39
		c0-0.326-0.098-0.563-0.294-0.717c-0.197-0.15-0.498-0.227-0.906-0.227h-1.02V68.088z M93.322,68.664v1.92h1.201
		c0.216,0,0.401-0.023,0.553-0.076c0.153-0.049,0.278-0.117,0.376-0.207c0.097-0.088,0.169-0.193,0.215-0.312
		c0.046-0.123,0.069-0.257,0.069-0.4c0-0.284-0.101-0.51-0.301-0.676c-0.2-0.166-0.504-0.248-0.912-0.248L93.322,68.664
		L93.322,68.664z"/>
</g>
<g>
	<defs>
		<rect id="SVGID_32_" width="223.2" height="72"/>
	</defs>
	<clipPath id="SVGID_71_">
		<use xlink:href="#SVGID_32_"  overflow="visible"/>
	</clipPath>
	<path clip-path="url(#SVGID_71_)" fill="#706F6F" d="M99.835,70.58c0.229,0,0.434-0.039,0.614-0.117
		c0.181-0.078,0.333-0.186,0.458-0.326c0.125-0.139,0.221-0.307,0.286-0.498c0.067-0.195,0.099-0.41,0.099-0.643v-3.434h0.814v3.434
		c0,0.328-0.052,0.633-0.158,0.916c-0.105,0.281-0.256,0.525-0.45,0.73c-0.195,0.205-0.434,0.366-0.715,0.481
		c-0.282,0.115-0.597,0.174-0.948,0.174c-0.353,0-0.669-0.059-0.95-0.174c-0.28-0.115-0.519-0.276-0.715-0.481
		c-0.196-0.205-0.347-0.449-0.452-0.73c-0.106-0.283-0.158-0.588-0.158-0.916v-3.434h0.813v3.434c0,0.23,0.033,0.443,0.1,0.637
		c0.065,0.193,0.16,0.361,0.286,0.502c0.125,0.141,0.278,0.25,0.46,0.328C99.4,70.541,99.606,70.58,99.835,70.58"/>
</g>
<g>
	<defs>
		<rect id="SVGID_31_" width="223.2" height="72"/>
	</defs>
	<clipPath id="SVGID_72_">
		<use xlink:href="#SVGID_31_"  overflow="visible"/>
	</clipPath>
	<rect x="103.454" y="65.562" clip-path="url(#SVGID_72_)" fill="#706F6F" width="0.817" height="5.668"/>
</g>
<g>
	<defs>
		<rect id="SVGID_30_" width="223.2" height="72"/>
	</defs>
	<clipPath id="SVGID_73_">
		<use xlink:href="#SVGID_30_"  overflow="visible"/>
	</clipPath>
	<polygon clip-path="url(#SVGID_73_)" fill="#706F6F" points="106.502,70.545 108.924,70.545 108.924,71.23 105.689,71.23 
		105.689,65.562 106.502,65.562 	"/>
</g>
<g>
	<defs>
		<rect id="SVGID_29_" width="223.2" height="72"/>
	</defs>
	<clipPath id="SVGID_74_">
		<use xlink:href="#SVGID_29_"  overflow="visible"/>
	</clipPath>
	<path clip-path="url(#SVGID_74_)" fill="#706F6F" d="M114.687,68.395c0,0.424-0.065,0.812-0.202,1.16
		c-0.137,0.351-0.326,0.648-0.572,0.896c-0.246,0.25-0.541,0.441-0.888,0.576c-0.346,0.137-0.728,0.203-1.146,0.203h-2.125v-5.668
		h2.125c0.418,0,0.8,0.067,1.146,0.207c0.347,0.135,0.642,0.328,0.888,0.575c0.246,0.246,0.437,0.546,0.572,0.896
		C114.62,67.588,114.687,67.973,114.687,68.395 M113.854,68.395c0-0.34-0.047-0.646-0.139-0.914
		c-0.092-0.27-0.225-0.498-0.396-0.684c-0.173-0.186-0.381-0.326-0.624-0.426s-0.517-0.148-0.816-0.148h-1.307v4.351h1.307
		c0.3,0,0.573-0.052,0.816-0.148c0.243-0.1,0.451-0.241,0.624-0.426c0.172-0.188,0.305-0.417,0.396-0.687
		S113.854,68.738,113.854,68.395"/>
</g>
<g>
	<defs>
		<rect id="SVGID_28_" width="223.2" height="72"/>
	</defs>
	<clipPath id="SVGID_75_">
		<use xlink:href="#SVGID_28_"  overflow="visible"/>
	</clipPath>
	<rect x="115.762" y="65.562" clip-path="url(#SVGID_75_)" fill="#706F6F" width="0.816" height="5.668"/>
</g>
<g>
	<defs>
		<rect id="SVGID_27_" width="223.2" height="72"/>
	</defs>
	<clipPath id="SVGID_76_">
		<use xlink:href="#SVGID_27_"  overflow="visible"/>
	</clipPath>
	<path clip-path="url(#SVGID_76_)" fill="#706F6F" d="M118.581,65.586c0.035,0.016,0.074,0.055,0.119,0.115l3.229,4.184
		c-0.007-0.072-0.011-0.143-0.015-0.215c-0.004-0.07-0.008-0.135-0.008-0.197v-3.91h0.717v5.668h-0.412
		c-0.062,0-0.115-0.01-0.16-0.032c-0.043-0.021-0.084-0.062-0.127-0.113l-3.232-4.183c0.006,0.068,0.012,0.138,0.016,0.203
		c0.004,0.068,0.006,0.131,0.006,0.188v3.938h-0.715v-5.668h0.424C118.491,65.562,118.545,65.57,118.581,65.586"/>
</g>
<g>
	<defs>
		<rect id="SVGID_26_" width="223.2" height="72"/>
	</defs>
	<clipPath id="SVGID_77_">
		<use xlink:href="#SVGID_26_"  overflow="visible"/>
	</clipPath>
	<path clip-path="url(#SVGID_77_)" fill="#706F6F" d="M127.745,71.143c-0.322,0.103-0.677,0.15-1.06,0.15
		c-0.455,0-0.867-0.07-1.233-0.212c-0.369-0.144-0.686-0.341-0.945-0.597s-0.461-0.562-0.604-0.916
		c-0.141-0.355-0.211-0.746-0.211-1.174c0-0.431,0.068-0.82,0.203-1.179c0.137-0.354,0.331-0.659,0.583-0.916
		c0.253-0.254,0.56-0.452,0.917-0.592s0.759-0.209,1.204-0.209c0.228,0,0.438,0.019,0.63,0.051c0.193,0.035,0.373,0.082,0.537,0.146
		c0.164,0.061,0.318,0.137,0.458,0.225c0.142,0.088,0.271,0.188,0.39,0.299l-0.229,0.371c-0.038,0.059-0.086,0.094-0.146,0.109
		c-0.059,0.014-0.121,0-0.189-0.043c-0.069-0.039-0.146-0.084-0.229-0.135c-0.082-0.052-0.182-0.101-0.296-0.146
		c-0.113-0.047-0.248-0.086-0.402-0.119c-0.152-0.033-0.336-0.049-0.551-0.049c-0.312,0-0.598,0.051-0.85,0.154
		c-0.254,0.102-0.469,0.248-0.646,0.438c-0.178,0.19-0.313,0.42-0.41,0.689c-0.098,0.27-0.146,0.572-0.146,0.906
		c0,0.354,0.05,0.668,0.151,0.944c0.099,0.275,0.242,0.511,0.428,0.703c0.188,0.19,0.41,0.338,0.675,0.438
		c0.267,0.103,0.562,0.152,0.888,0.152c0.127,0,0.246-0.008,0.357-0.021c0.111-0.012,0.218-0.034,0.32-0.062
		c0.1-0.028,0.199-0.062,0.293-0.102c0.096-0.04,0.188-0.084,0.285-0.132v-1.213h-0.851c-0.053,0-0.096-0.014-0.128-0.045
		c-0.033-0.031-0.05-0.067-0.05-0.11v-0.464h1.767v2.195C128.372,70.887,128.065,71.041,127.745,71.143"/>
</g>
<g>
	<defs>
		<rect id="SVGID_25_" width="223.2" height="72"/>
	</defs>
	<clipPath id="SVGID_78_">
		<use xlink:href="#SVGID_25_"  overflow="visible"/>
	</clipPath>
	<rect x="131.806" y="65.562" clip-path="url(#SVGID_78_)" fill="#706F6F" width="0.817" height="5.668"/>
</g>
<g>
	<defs>
		<rect id="SVGID_24_" width="223.2" height="72"/>
	</defs>
	<clipPath id="SVGID_79_">
		<use xlink:href="#SVGID_24_"  overflow="visible"/>
	</clipPath>
	<path clip-path="url(#SVGID_79_)" fill="#706F6F" d="M134.624,65.586c0.035,0.016,0.076,0.055,0.121,0.115l3.229,4.184
		c-0.006-0.072-0.01-0.143-0.014-0.215c-0.006-0.07-0.008-0.135-0.008-0.197v-3.91h0.717v5.668h-0.412
		c-0.063,0-0.116-0.01-0.159-0.032c-0.044-0.021-0.087-0.062-0.128-0.113l-3.231-4.183c0.005,0.068,0.011,0.138,0.015,0.203
		c0.004,0.068,0.006,0.131,0.006,0.188v3.938h-0.715v-5.668h0.422C134.536,65.562,134.59,65.57,134.624,65.586"/>
</g>
<g>
	<defs>
		<rect id="SVGID_23_" width="223.2" height="72"/>
	</defs>
	<clipPath id="SVGID_80_">
		<use xlink:href="#SVGID_23_"  overflow="visible"/>
	</clipPath>
	<path clip-path="url(#SVGID_80_)" fill="#706F6F" d="M145.02,68.395c0,0.424-0.066,0.812-0.203,1.16
		c-0.137,0.351-0.326,0.648-0.572,0.896c-0.246,0.25-0.543,0.441-0.888,0.576c-0.346,0.137-0.729,0.203-1.146,0.203h-2.125v-5.668
		h2.125c0.418,0,0.801,0.067,1.146,0.207c0.345,0.135,0.642,0.328,0.888,0.575c0.246,0.246,0.437,0.546,0.572,0.896
		C144.952,67.588,145.02,67.973,145.02,68.395 M144.186,68.395c0-0.34-0.048-0.646-0.139-0.914c-0.092-0.27-0.226-0.498-0.396-0.684
		c-0.174-0.186-0.381-0.326-0.625-0.426s-0.518-0.148-0.816-0.148h-1.307v4.351h1.307c0.301,0,0.572-0.052,0.816-0.148
		c0.244-0.1,0.451-0.241,0.625-0.426c0.171-0.188,0.305-0.417,0.396-0.687C144.138,69.043,144.186,68.738,144.186,68.395"/>
</g>
<g>
	<defs>
		<rect id="SVGID_22_" width="223.2" height="72"/>
	</defs>
	<clipPath id="SVGID_81_">
		<use xlink:href="#SVGID_22_"  overflow="visible"/>
	</clipPath>
	<path clip-path="url(#SVGID_81_)" fill="#706F6F" d="M148.297,70.58c0.229,0,0.435-0.039,0.613-0.117
		c0.182-0.078,0.334-0.186,0.457-0.326c0.127-0.139,0.223-0.307,0.287-0.498c0.066-0.195,0.1-0.41,0.1-0.643v-3.434h0.813v3.434
		c0,0.328-0.052,0.633-0.157,0.916c-0.104,0.281-0.257,0.525-0.451,0.73c-0.193,0.205-0.434,0.366-0.715,0.481
		c-0.283,0.115-0.597,0.174-0.947,0.174c-0.354,0-0.67-0.059-0.949-0.174c-0.28-0.115-0.52-0.276-0.715-0.481
		c-0.196-0.205-0.348-0.449-0.452-0.73c-0.106-0.283-0.158-0.588-0.158-0.916v-3.434h0.812v3.434c0,0.23,0.033,0.443,0.102,0.637
		c0.064,0.193,0.16,0.361,0.286,0.502c0.124,0.141,0.276,0.25,0.46,0.328C147.863,70.541,148.068,70.58,148.297,70.58"/>
</g>
<g>
	<defs>
		<rect id="SVGID_21_" width="223.2" height="72"/>
	</defs>
	<clipPath id="SVGID_82_">
		<use xlink:href="#SVGID_21_"  overflow="visible"/>
	</clipPath>
	<path clip-path="url(#SVGID_82_)" fill="#706F6F" d="M154.834,66.477c-0.022,0.041-0.051,0.072-0.076,0.092
		c-0.028,0.021-0.065,0.029-0.11,0.029c-0.046,0-0.101-0.021-0.162-0.063c-0.06-0.043-0.135-0.093-0.226-0.146
		c-0.092-0.055-0.199-0.104-0.326-0.146c-0.126-0.043-0.277-0.064-0.454-0.064c-0.168,0-0.317,0.021-0.444,0.064
		c-0.129,0.043-0.232,0.104-0.318,0.18c-0.086,0.077-0.151,0.166-0.194,0.271c-0.043,0.104-0.065,0.215-0.065,0.338
		c0,0.154,0.039,0.281,0.117,0.384c0.077,0.099,0.182,0.185,0.307,0.257c0.127,0.072,0.271,0.135,0.433,0.188
		c0.162,0.054,0.327,0.107,0.496,0.166c0.169,0.06,0.334,0.123,0.496,0.195c0.161,0.072,0.306,0.166,0.431,0.278
		c0.129,0.11,0.23,0.247,0.307,0.409c0.078,0.162,0.117,0.359,0.117,0.596c0,0.25-0.043,0.482-0.129,0.701
		c-0.086,0.217-0.209,0.406-0.373,0.568s-0.363,0.289-0.6,0.383c-0.238,0.094-0.507,0.139-0.811,0.139
		c-0.184,0-0.357-0.016-0.526-0.053c-0.17-0.034-0.331-0.084-0.483-0.15c-0.15-0.064-0.293-0.141-0.425-0.232
		c-0.134-0.09-0.253-0.19-0.358-0.305l0.236-0.388c0.021-0.032,0.047-0.058,0.082-0.077c0.032-0.02,0.068-0.029,0.107-0.029
		c0.056,0,0.119,0.029,0.191,0.086c0.073,0.06,0.161,0.123,0.27,0.191c0.105,0.07,0.234,0.135,0.386,0.191
		c0.147,0.059,0.331,0.088,0.545,0.088c0.175,0,0.334-0.023,0.474-0.07c0.141-0.048,0.26-0.115,0.354-0.201
		c0.095-0.088,0.17-0.193,0.219-0.318c0.051-0.123,0.076-0.26,0.076-0.409c0-0.168-0.04-0.308-0.118-0.412
		c-0.077-0.106-0.179-0.195-0.305-0.267c-0.127-0.071-0.271-0.133-0.433-0.184c-0.158-0.048-0.324-0.102-0.494-0.156
		c-0.172-0.053-0.336-0.115-0.496-0.188c-0.16-0.07-0.305-0.163-0.432-0.277c-0.125-0.115-0.227-0.258-0.305-0.43
		c-0.079-0.17-0.118-0.383-0.118-0.635c0-0.199,0.039-0.396,0.12-0.584c0.078-0.191,0.193-0.357,0.342-0.502
		c0.151-0.146,0.336-0.262,0.557-0.351c0.22-0.09,0.473-0.133,0.757-0.133c0.317,0,0.608,0.049,0.875,0.149
		c0.265,0.101,0.495,0.244,0.692,0.435L154.834,66.477z"/>
</g>
<g>
	<defs>
		<rect id="SVGID_20_" width="223.2" height="72"/>
	</defs>
	<clipPath id="SVGID_83_">
		<use xlink:href="#SVGID_20_"  overflow="visible"/>
	</clipPath>
	<polygon clip-path="url(#SVGID_83_)" fill="#706F6F" points="160.064,65.562 160.064,66.246 158.25,66.246 158.25,71.23 
		157.438,71.23 157.438,66.246 155.622,66.246 155.622,65.562 	"/>
</g>
<g>
	<defs>
		<rect id="SVGID_19_" width="223.2" height="72"/>
	</defs>
	<clipPath id="SVGID_84_">
		<use xlink:href="#SVGID_19_"  overflow="visible"/>
	</clipPath>
	<path clip-path="url(#SVGID_84_)" fill="#706F6F" d="M161.7,68.893v2.338h-0.813v-5.668h1.624c0.363,0,0.676,0.037,0.938,0.111
		c0.266,0.074,0.482,0.18,0.653,0.318c0.174,0.139,0.3,0.305,0.382,0.498c0.082,0.195,0.122,0.412,0.122,0.652
		c0,0.2-0.028,0.389-0.092,0.561c-0.062,0.176-0.151,0.33-0.269,0.469s-0.262,0.258-0.432,0.357
		c-0.171,0.102-0.363,0.176-0.579,0.225c0.104,0.061,0.192,0.146,0.267,0.258l1.613,2.219h-0.727c-0.146,0-0.254-0.057-0.323-0.174
		l-1.423-1.986c-0.045-0.062-0.094-0.108-0.146-0.135c-0.053-0.028-0.132-0.043-0.236-0.043H161.7z M161.7,68.297h0.78
		c0.22,0,0.411-0.027,0.578-0.08c0.165-0.053,0.304-0.127,0.414-0.225s0.194-0.213,0.251-0.346c0.056-0.133,0.085-0.281,0.085-0.445
		c0-0.328-0.108-0.576-0.324-0.746c-0.216-0.168-0.542-0.252-0.976-0.252h-0.811v2.094H161.7z"/>
</g>
<g>
	<defs>
		<rect id="SVGID_18_" width="223.2" height="72"/>
	</defs>
	<clipPath id="SVGID_85_">
		<use xlink:href="#SVGID_18_"  overflow="visible"/>
	</clipPath>
	<path clip-path="url(#SVGID_85_)" fill="#706F6F" d="M167.825,68.988v2.242h-0.812v-2.242l-2.079-3.426h0.719
		c0.071,0,0.13,0.018,0.175,0.053c0.041,0.033,0.077,0.08,0.105,0.137l1.253,2.145c0.05,0.099,0.095,0.189,0.133,0.273
		c0.04,0.084,0.076,0.168,0.108,0.252c0.029-0.084,0.062-0.168,0.1-0.254s0.081-0.176,0.129-0.271l1.248-2.145
		c0.026-0.047,0.062-0.09,0.107-0.129c0.044-0.041,0.101-0.061,0.169-0.061h0.723L167.825,68.988z"/>
</g>
<g>
	<defs>
		<rect id="SVGID_17_" width="223.2" height="72"/>
	</defs>
	<clipPath id="SVGID_86_">
		<use xlink:href="#SVGID_17_"  overflow="visible"/>
	</clipPath>
	<path clip-path="url(#SVGID_86_)" fill="#706F6F" d="M176.693,71.23h-0.633c-0.069,0-0.129-0.019-0.173-0.054
		c-0.047-0.034-0.08-0.082-0.104-0.141l-0.509-1.33h-2.519l-0.51,1.33c-0.015,0.051-0.047,0.096-0.096,0.135
		c-0.051,0.039-0.107,0.06-0.177,0.06h-0.634l2.261-5.668h0.825L176.693,71.23z M172.984,69.121h2.063l-0.854-2.23
		c-0.028-0.07-0.06-0.154-0.09-0.248c-0.028-0.094-0.06-0.194-0.089-0.305c-0.028,0.109-0.057,0.213-0.088,0.307
		c-0.028,0.097-0.057,0.181-0.086,0.25L172.984,69.121z"/>
</g>
<g>
	<defs>
		<rect id="SVGID_16_" width="223.2" height="72"/>
	</defs>
	<clipPath id="SVGID_87_">
		<use xlink:href="#SVGID_16_"  overflow="visible"/>
	</clipPath>
	<path clip-path="url(#SVGID_87_)" fill="#706F6F" d="M180.331,66.477c-0.021,0.041-0.05,0.072-0.076,0.092
		c-0.027,0.021-0.064,0.029-0.109,0.029c-0.046,0-0.1-0.021-0.162-0.063c-0.059-0.043-0.135-0.093-0.227-0.146
		c-0.092-0.056-0.198-0.104-0.325-0.146c-0.126-0.043-0.278-0.064-0.454-0.064c-0.168,0-0.316,0.021-0.445,0.064
		c-0.128,0.043-0.232,0.104-0.318,0.18c-0.086,0.077-0.15,0.166-0.193,0.271c-0.043,0.104-0.064,0.215-0.064,0.338
		c0,0.154,0.039,0.281,0.115,0.384c0.078,0.099,0.182,0.185,0.307,0.257c0.127,0.072,0.271,0.135,0.434,0.188
		c0.163,0.054,0.327,0.107,0.496,0.166c0.169,0.06,0.334,0.123,0.494,0.195c0.162,0.072,0.308,0.166,0.433,0.278
		c0.128,0.11,0.229,0.247,0.308,0.409s0.115,0.359,0.115,0.596c0,0.25-0.041,0.482-0.128,0.701c-0.086,0.217-0.21,0.406-0.374,0.568
		c-0.162,0.162-0.363,0.289-0.599,0.383c-0.238,0.094-0.509,0.139-0.812,0.139c-0.183,0-0.356-0.016-0.525-0.053
		c-0.17-0.034-0.331-0.084-0.483-0.15c-0.151-0.064-0.293-0.141-0.425-0.232c-0.134-0.09-0.253-0.19-0.359-0.305l0.236-0.388
		c0.023-0.032,0.048-0.058,0.083-0.077c0.032-0.02,0.067-0.029,0.108-0.029c0.055,0,0.117,0.029,0.189,0.086
		c0.074,0.06,0.162,0.123,0.27,0.191c0.106,0.07,0.234,0.135,0.387,0.191c0.148,0.059,0.331,0.088,0.545,0.088
		c0.175,0,0.334-0.023,0.473-0.07c0.141-0.048,0.258-0.115,0.354-0.201c0.095-0.088,0.17-0.193,0.219-0.318
		c0.05-0.123,0.076-0.26,0.076-0.409c0-0.168-0.04-0.308-0.118-0.412c-0.078-0.106-0.179-0.195-0.305-0.267
		c-0.127-0.071-0.271-0.133-0.434-0.184c-0.158-0.048-0.322-0.102-0.494-0.156c-0.17-0.053-0.336-0.115-0.494-0.188
		c-0.161-0.07-0.305-0.163-0.434-0.277c-0.125-0.115-0.227-0.258-0.304-0.43c-0.079-0.17-0.118-0.383-0.118-0.635
		c0-0.199,0.039-0.396,0.12-0.584c0.077-0.191,0.192-0.357,0.342-0.502c0.151-0.146,0.335-0.262,0.558-0.351
		c0.219-0.09,0.472-0.133,0.756-0.133c0.316,0,0.609,0.049,0.875,0.149c0.264,0.101,0.496,0.244,0.691,0.435L180.331,66.477z"/>
</g>
<g>
	<defs>
		<rect id="SVGID_15_" width="223.2" height="72"/>
	</defs>
	<clipPath id="SVGID_88_">
		<use xlink:href="#SVGID_15_"  overflow="visible"/>
	</clipPath>
	<path clip-path="url(#SVGID_88_)" fill="#706F6F" d="M184.624,66.477c-0.022,0.041-0.049,0.072-0.076,0.092
		c-0.027,0.021-0.063,0.029-0.108,0.029c-0.047,0-0.101-0.021-0.162-0.063s-0.136-0.093-0.226-0.146
		c-0.092-0.056-0.2-0.104-0.327-0.146c-0.125-0.043-0.278-0.064-0.454-0.064c-0.168,0-0.316,0.021-0.443,0.064
		c-0.129,0.043-0.234,0.104-0.32,0.18c-0.086,0.077-0.15,0.166-0.194,0.271c-0.042,0.104-0.063,0.215-0.063,0.338
		c0,0.154,0.039,0.281,0.115,0.384c0.078,0.099,0.182,0.185,0.307,0.257c0.127,0.072,0.271,0.135,0.435,0.188
		c0.161,0.054,0.327,0.107,0.496,0.166c0.167,0.06,0.333,0.123,0.495,0.195s0.305,0.166,0.432,0.278
		c0.126,0.11,0.229,0.247,0.307,0.409c0.076,0.162,0.117,0.359,0.117,0.596c0,0.25-0.045,0.482-0.129,0.701
		c-0.086,0.217-0.211,0.406-0.373,0.568c-0.164,0.162-0.363,0.289-0.601,0.383c-0.238,0.094-0.507,0.139-0.812,0.139
		c-0.182,0-0.355-0.016-0.526-0.053c-0.169-0.034-0.33-0.084-0.482-0.15c-0.149-0.064-0.293-0.141-0.426-0.232
		c-0.132-0.09-0.252-0.19-0.356-0.305l0.236-0.388c0.021-0.032,0.049-0.058,0.08-0.077c0.034-0.02,0.07-0.029,0.109-0.029
		c0.057,0,0.119,0.029,0.189,0.086c0.074,0.06,0.162,0.123,0.271,0.191c0.105,0.07,0.232,0.135,0.384,0.191
		c0.149,0.059,0.333,0.088,0.546,0.088c0.176,0,0.334-0.023,0.475-0.07c0.14-0.048,0.256-0.115,0.354-0.201
		c0.096-0.088,0.168-0.193,0.218-0.318c0.05-0.123,0.076-0.26,0.076-0.409c0-0.168-0.038-0.308-0.117-0.412
		c-0.077-0.106-0.179-0.195-0.306-0.267c-0.126-0.071-0.271-0.133-0.432-0.184c-0.16-0.048-0.326-0.102-0.494-0.156
		c-0.172-0.053-0.336-0.115-0.496-0.188c-0.161-0.07-0.307-0.163-0.432-0.277c-0.127-0.115-0.229-0.258-0.307-0.43
		c-0.078-0.17-0.116-0.383-0.116-0.635c0-0.199,0.039-0.396,0.118-0.584c0.08-0.191,0.193-0.357,0.344-0.502
		c0.15-0.146,0.336-0.262,0.555-0.351c0.223-0.09,0.474-0.133,0.758-0.133c0.318,0,0.609,0.049,0.875,0.149
		c0.264,0.101,0.494,0.244,0.691,0.435L184.624,66.477z"/>
</g>
<g>
	<defs>
		<rect id="SVGID_14_" width="223.2" height="72"/>
	</defs>
	<clipPath id="SVGID_89_">
		<use xlink:href="#SVGID_14_"  overflow="visible"/>
	</clipPath>
	<path clip-path="url(#SVGID_89_)" fill="#706F6F" d="M191.265,68.395c0,0.424-0.067,0.814-0.203,1.17
		c-0.136,0.356-0.326,0.66-0.571,0.916c-0.246,0.256-0.539,0.455-0.885,0.597c-0.345,0.143-0.729,0.213-1.146,0.213
		s-0.799-0.07-1.143-0.213c-0.345-0.142-0.641-0.341-0.887-0.597c-0.249-0.256-0.439-0.561-0.575-0.916
		c-0.138-0.354-0.203-0.746-0.203-1.17c0-0.422,0.065-0.809,0.203-1.164c0.136-0.355,0.326-0.66,0.575-0.918
		c0.246-0.254,0.542-0.455,0.887-0.598c0.344-0.143,0.725-0.216,1.143-0.216s0.802,0.073,1.146,0.216
		c0.346,0.143,0.639,0.344,0.885,0.598c0.245,0.258,0.436,0.562,0.571,0.918C191.197,67.586,191.265,67.973,191.265,68.395
		 M190.432,68.395c0-0.34-0.047-0.646-0.141-0.916c-0.09-0.271-0.223-0.5-0.396-0.688s-0.38-0.332-0.622-0.433
		c-0.242-0.102-0.514-0.15-0.814-0.15c-0.299,0-0.57,0.05-0.814,0.15c-0.243,0.101-0.451,0.244-0.624,0.433
		c-0.172,0.188-0.306,0.418-0.399,0.688c-0.093,0.271-0.14,0.576-0.14,0.916c0,0.345,0.047,0.65,0.14,0.92
		c0.094,0.273,0.229,0.502,0.399,0.688c0.173,0.188,0.381,0.329,0.624,0.433c0.244,0.1,0.516,0.149,0.814,0.149
		c0.302,0,0.572-0.051,0.814-0.149c0.242-0.104,0.449-0.244,0.622-0.433c0.173-0.187,0.306-0.414,0.396-0.688
		C190.385,69.045,190.432,68.738,190.432,68.395"/>
</g>
<g>
	<defs>
		<rect id="SVGID_13_" width="223.2" height="72"/>
	</defs>
	<clipPath id="SVGID_90_">
		<use xlink:href="#SVGID_13_"  overflow="visible"/>
	</clipPath>
	<path clip-path="url(#SVGID_90_)" fill="#706F6F" d="M196.297,70.029c0.045,0,0.084,0.018,0.117,0.053l0.324,0.355
		c-0.23,0.271-0.514,0.481-0.848,0.631c-0.332,0.149-0.732,0.225-1.198,0.225c-0.412,0-0.782-0.07-1.116-0.213
		c-0.332-0.143-0.617-0.34-0.853-0.596c-0.236-0.256-0.418-0.562-0.545-0.916c-0.128-0.355-0.192-0.746-0.192-1.174
		c0-0.427,0.068-0.816,0.202-1.172c0.133-0.357,0.324-0.662,0.569-0.916c0.242-0.255,0.537-0.451,0.879-0.595
		c0.34-0.144,0.717-0.213,1.127-0.213c0.4,0,0.761,0.065,1.07,0.196c0.312,0.134,0.586,0.308,0.816,0.525l-0.27,0.379
		c-0.019,0.027-0.039,0.049-0.064,0.066c-0.025,0.016-0.061,0.025-0.104,0.025c-0.051,0-0.109-0.025-0.178-0.076
		c-0.066-0.049-0.154-0.105-0.264-0.168c-0.109-0.062-0.247-0.117-0.41-0.168c-0.163-0.049-0.363-0.074-0.604-0.074
		c-0.285,0-0.547,0.049-0.784,0.15c-0.238,0.1-0.443,0.242-0.615,0.43c-0.17,0.188-0.303,0.416-0.397,0.688
		c-0.097,0.271-0.144,0.578-0.144,0.92c0,0.349,0.05,0.658,0.149,0.931c0.098,0.272,0.232,0.504,0.404,0.688
		c0.174,0.188,0.377,0.332,0.611,0.43c0.234,0.101,0.484,0.147,0.754,0.147c0.166,0,0.314-0.009,0.446-0.028s0.254-0.051,0.366-0.09
		c0.111-0.039,0.217-0.092,0.312-0.154c0.098-0.062,0.195-0.139,0.292-0.225c0.022-0.02,0.043-0.033,0.065-0.045
		C196.245,70.035,196.271,70.029,196.297,70.029"/>
</g>
<g>
	<defs>
		<rect id="SVGID_12_" width="223.2" height="72"/>
	</defs>
	<clipPath id="SVGID_91_">
		<use xlink:href="#SVGID_12_"  overflow="visible"/>
	</clipPath>
	<rect x="197.6" y="65.562" clip-path="url(#SVGID_91_)" fill="#706F6F" width="0.816" height="5.668"/>
</g>
<g>
	<defs>
		<rect id="SVGID_11_" width="223.2" height="72"/>
	</defs>
	<clipPath id="SVGID_92_">
		<use xlink:href="#SVGID_11_"  overflow="visible"/>
	</clipPath>
	<path clip-path="url(#SVGID_92_)" fill="#706F6F" d="M204.488,71.23h-0.632c-0.07,0-0.13-0.019-0.174-0.054
		c-0.046-0.034-0.079-0.082-0.104-0.141l-0.51-1.33h-2.517l-0.509,1.33c-0.016,0.051-0.049,0.096-0.096,0.135
		c-0.052,0.039-0.107,0.06-0.178,0.06h-0.633l2.26-5.668h0.825L204.488,71.23z M200.78,69.121h2.064l-0.855-2.23
		c-0.029-0.07-0.061-0.154-0.09-0.248s-0.061-0.194-0.089-0.305c-0.029,0.109-0.058,0.213-0.088,0.307
		c-0.028,0.097-0.058,0.181-0.086,0.25L200.78,69.121z"/>
</g>
<g>
	<defs>
		<rect id="SVGID_10_" width="223.2" height="72"/>
	</defs>
	<clipPath id="SVGID_93_">
		<use xlink:href="#SVGID_10_"  overflow="visible"/>
	</clipPath>
	<polygon clip-path="url(#SVGID_93_)" fill="#706F6F" points="208.51,65.562 208.51,66.246 206.697,66.246 206.697,71.23 
		205.883,71.23 205.883,66.246 204.066,66.246 204.066,65.562 	"/>
</g>
<g>
	<defs>
		<rect id="SVGID_9_" width="223.2" height="72"/>
	</defs>
	<clipPath id="SVGID_94_">
		<use xlink:href="#SVGID_9_"  overflow="visible"/>
	</clipPath>
	<rect x="209.333" y="65.562" clip-path="url(#SVGID_94_)" fill="#706F6F" width="0.816" height="5.668"/>
</g>
<g>
	<defs>
		<rect id="SVGID_8_" width="223.2" height="72"/>
	</defs>
	<clipPath id="SVGID_95_">
		<use xlink:href="#SVGID_8_"  overflow="visible"/>
	</clipPath>
	<path clip-path="url(#SVGID_95_)" fill="#706F6F" d="M216.833,68.395c0,0.424-0.067,0.814-0.203,1.17
		c-0.137,0.355-0.325,0.66-0.57,0.916c-0.246,0.256-0.539,0.455-0.885,0.597c-0.348,0.143-0.729,0.213-1.146,0.213
		s-0.8-0.07-1.145-0.213c-0.344-0.142-0.639-0.341-0.887-0.597c-0.246-0.256-0.438-0.561-0.574-0.916
		c-0.135-0.354-0.202-0.746-0.202-1.17c0-0.422,0.065-0.809,0.202-1.164c0.138-0.355,0.328-0.66,0.574-0.918
		c0.248-0.254,0.543-0.455,0.887-0.598c0.345-0.143,0.726-0.216,1.145-0.216s0.801,0.073,1.146,0.216s0.639,0.344,0.885,0.598
		c0.245,0.258,0.434,0.562,0.57,0.918C216.765,67.586,216.833,67.973,216.833,68.395 M215.999,68.395
		c0-0.34-0.047-0.646-0.139-0.916s-0.224-0.5-0.396-0.688c-0.172-0.188-0.379-0.332-0.621-0.433c-0.243-0.102-0.516-0.15-0.814-0.15
		s-0.572,0.05-0.814,0.15s-0.451,0.244-0.625,0.433c-0.172,0.188-0.307,0.418-0.399,0.688c-0.091,0.271-0.138,0.576-0.138,0.916
		c0,0.345,0.047,0.65,0.138,0.92c0.095,0.273,0.228,0.502,0.399,0.688c0.174,0.188,0.383,0.329,0.625,0.433
		c0.242,0.1,0.516,0.149,0.814,0.149s0.571-0.051,0.814-0.149c0.242-0.104,0.449-0.244,0.621-0.433
		c0.174-0.187,0.306-0.414,0.396-0.688C215.952,69.045,215.999,68.738,215.999,68.395"/>
</g>
<g>
	<defs>
		<rect id="SVGID_7_" width="223.2" height="72"/>
	</defs>
	<clipPath id="SVGID_96_">
		<use xlink:href="#SVGID_7_"  overflow="visible"/>
	</clipPath>
	<path clip-path="url(#SVGID_96_)" fill="#706F6F" d="M218.481,65.586c0.034,0.016,0.075,0.055,0.12,0.115l3.228,4.184
		c-0.004-0.072-0.01-0.143-0.014-0.215c-0.005-0.07-0.007-0.135-0.007-0.197v-3.91h0.716v5.668h-0.41
		c-0.064,0-0.117-0.01-0.158-0.032c-0.045-0.021-0.088-0.062-0.131-0.113l-3.23-4.183c0.006,0.068,0.01,0.138,0.015,0.203
		c0.004,0.068,0.006,0.131,0.006,0.188v3.938H217.9v-5.668h0.422C218.393,65.562,218.447,65.57,218.481,65.586"/>
</g>
<g>
	<defs>
		<rect id="SVGID_6_" width="223.2" height="72"/>
	</defs>
	<clipPath id="SVGID_97_">
		<use xlink:href="#SVGID_6_"  overflow="visible"/>
	</clipPath>
	<path clip-path="url(#SVGID_97_)" fill="#36A9E1" d="M45.375,25l2.842-8.246C43.522,5.402,31.44,1.516,19.479,1.516H0.017V25
		h12.695V12.503h6.464c8.165,0,15.994,2.951,17.338,12.497H45.375z"/>
</g>
<g>
	<defs>
		<rect id="SVGID_5_" width="223.2" height="72"/>
	</defs>
	<clipPath id="SVGID_98_">
		<use xlink:href="#SVGID_5_"  overflow="visible"/>
	</clipPath>
	<path clip-path="url(#SVGID_98_)" fill="#36A9E1" d="M74.794,0.702c-12.026,0-22.057,5.97-26.504,15.97l2.868,8.329h9.064
		C61.696,17.552,67.516,12.4,75.246,12.4c4.074,0,8.379,1.59,10.795,4.907l8.755-8.753C90.345,3.419,82.268,0.702,74.794,0.702"/>
</g>
<g>
	<defs>
		<rect id="SVGID_4_" width="223.2" height="72"/>
	</defs>
	<clipPath id="SVGID_99_">
		<use xlink:href="#SVGID_4_"  overflow="visible"/>
	</clipPath>
	<rect x="151.558" y="0.701" clip-path="url(#SVGID_99_)" fill="#333233" width="13.681" height="56.309"/>
</g>
<g>
	<defs>
		<rect id="SVGID_3_" width="223.2" height="72"/>
	</defs>
	<clipPath id="SVGID_100_">
		<use xlink:href="#SVGID_3_"  overflow="visible"/>
	</clipPath>
	<path clip-path="url(#SVGID_100_)" fill="#333233" d="M197.102,15.734l4.348,18.476h-8.826L197.102,15.734z M189.915,0.705
		L171.229,57.01h14.466l3.563-10.205h15.414l3.77,10.205h14.742L204.7,0.705H189.915z"/>
</g>
<g>
	<defs>
		<rect id="SVGID_2_" width="223.2" height="72"/>
	</defs>
	<clipPath id="SVGID_101_">
		<use xlink:href="#SVGID_2_"  overflow="visible"/>
	</clipPath>
	<path clip-path="url(#SVGID_101_)" fill="#333233" d="M122.39,33.15h-7.556v12.885h7.636c4.294,0,9.542-1.191,9.542-6.68
		C132.012,34.662,128.198,33.15,122.39,33.15 M121.519,11.518h-6.685V23.13h7.316c5.087,0,8.033-2.145,8.033-6.123
		C130.185,13.187,127.238,11.518,121.519,11.518 M124.141,57.012h-24.127V0.704h24.127c8.75,0,19.169,3.101,19.169,14.474
		c0,6.204-3.739,10.338-9.228,12.165v0.163c6.445,1.11,11.53,5.723,11.53,13.121C145.613,52.875,134.875,57.012,124.141,57.012"/>
</g>
<g>
	<defs>
		<rect id="SVGID_1_" width="223.2" height="72"/>
	</defs>
	<clipPath id="SVGID_102_">
		<use xlink:href="#SVGID_1_"  overflow="visible"/>
	</clipPath>
	<path clip-path="url(#SVGID_102_)" fill="#36A9E1" d="M86.341,39.727c-2.264,3.168-6.265,5.438-11.32,5.438
		c-7.451,0-13.038-4.657-14.672-11.878h-6.496l1.754,6.462l-7.552-5.493l-7.129,5.493l1.754-6.462h-6.645
		c-2.207,7.739-9.438,10.366-17.163,10.366h-6.161V33.285H0.016v21.506h20.073c11.256,0,22.788-4.669,27.702-15.107
		c4.093,10.623,14.211,17.328,26.773,17.328c8.986,0,16.08-3.395,20.759-8.832L86.341,39.727z"/>
</g>
</svg>
